# xmcd
#
# Track frame offsets: 
#        182
#        67052
#        82070
#        94175
#        122060
#        127540
#        150027
#        155380
#        177660
#        192635
#        223660
#        242465
#
# Disc length: 3495 seconds
#
# Revision: 4
# Processed by: cddbd v1.5.2PL0 Copyright (c) Steve Scherf et al.
# Submitted via: ExactAudioCopyFreeDBPlugin 1.0
#
DISCID=9d0da50c
DTITLE=Klassische Musik - Bolero Espana - Feuertanz
DYEAR=1984
DGENRE=Classical
TTITLE0=Bolero
TTITLE1=The Neighbours' Dance
TTITLE2=The Miller's Dance
TTITLE3=Final Dance
TTITLE4=Capriccio Espagnol - Alborada
TTITLE5=Capriccio Espagnol - Variazioni
TTITLE6=Capriccio Espagnol - Alborada
TTITLE7=Capriccio Espagnol - Scena e canto gitano
TTITLE8=Capriccio Espagnol - Fandango asturiano
TTITLE9=Espana
TTITLE10=Danzas Fantasticas
TTITLE11=El armor brujo
EXTD=
EXTT0=
EXTT1=
EXTT2=
EXTT3=
EXTT4=
EXTT5=
EXTT6=
EXTT7=
EXTT8=
EXTT9=
EXTT10=
EXTT11=
PLAYORDER=
